<?xml version="1.0" encoding="UTF-8"?>
<svg version="1.1" xmlns="http://www.w3.org/2000/svg" width="103" height="103">
<path d="M0 0 C33.99 0 67.98 0 103 0 C103 33.99 103 67.98 103 103 C69.01 103 35.02 103 0 103 C0 69.01 0 35.02 0 0 Z " fill="#161515" transform="translate(0,0)"/>
<path d="M0 0 C5.28 0 10.56 0 16 0 C16 0.66 16 1.32 16 2 C14.02 2.99 14.02 2.99 12 4 C11.67 11.59 11.34 19.18 11 27 C20.30688561 27.04860005 20.30688561 27.04860005 23.5625 23.75 C25.29226408 20.75398466 25.29226408 20.75398466 26 16 C21.38 16 16.76 16 12 16 C12 14.68 12 13.36 12 12 C23.22 12 34.44 12 46 12 C45.67 14.64 45.34 17.28 45 20 C44.814375 21.8871875 44.814375 21.8871875 44.625 23.8125 C43.99628201 27.01896174 43.57604912 28.09596369 41 30 C41.680625 30.7734375 41.680625 30.7734375 42.375 31.5625 C44.38200383 34.57300574 45.12731809 37.50927237 46 41 C43.6875 41 43.6875 41 41 40 C39.61706907 37.44481903 38.78208351 34.79133871 38 32 C37.01 32 36.02 32 35 32 C35.66 32.7425 36.32 33.485 37 34.25 C40.1724187 39.00862805 39.7511753 44.52393204 39 50 C37.0171377 54.03654111 34.83420139 56.6500056 31 59 C27.64264863 60.11911712 25.11794614 60.11365586 21.58203125 60.09765625 C20.32841797 60.09443359 19.07480469 60.09121094 17.78320312 60.08789062 C16.47287109 60.07951172 15.16253906 60.07113281 13.8125 60.0625 C12.47721519 60.05748317 11.14192859 60.05292059 9.80664062 60.04882812 C6.53771527 60.03702695 3.26888009 60.02056297 0 60 C0.99 59.34 1.98 58.68 3 58 C3.51184645 54.99585431 3.51184645 54.99585431 3.51171875 51.4609375 C3.54716797 50.15898438 3.58261719 48.85703125 3.61914062 47.515625 C3.64224231 46.13542191 3.66502464 44.75521343 3.6875 43.375 C3.72066445 41.98694648 3.7551533 40.59892393 3.79101562 39.2109375 C3.87374115 35.80737293 3.94281257 32.4040741 4 29 C2.35 29.66 0.7 30.32 -1 31 C-1.33 34.3 -1.66 37.6 -2 41 C-3.65 41 -5.3 41 -7 41 C-7 33.74 -7 26.48 -7 19 C-5.35 19 -3.7 19 -2 19 C-2 22.3 -2 25.6 -2 29 C-0.02 28.67 1.96 28.34 4 28 C3.67 19.75 3.34 11.5 3 3 C2.01 2.67 1.02 2.34 0 2 C0 1.34 0 0.68 0 0 Z " fill="#CFA751" transform="translate(32,20)"/>
<path d="M0 0 C1.56210161 -0.05459773 3.12477089 -0.09306101 4.6875 -0.125 C5.55761719 -0.14820313 6.42773438 -0.17140625 7.32421875 -0.1953125 C10 0 10 0 15 2 C15 6.62 15 11.24 15 16 C16.65 15.67 18.3 15.34 20 15 C20 13.02 20 11.04 20 9 C22 11 22 11 22.375 14.1875 C21.83403718 19.68728871 20.04238131 23.13782881 15.875 26.9375 C11.67623578 28.48921721 7.41981833 28.76410419 3 28 C1.37426758 26.83520508 1.37426758 26.83520508 0 25 C-0.34057617 22.36450195 -0.34057617 22.36450195 -0.29296875 19.23828125 C-0.28330078 18.12001953 -0.27363281 17.00175781 -0.26367188 15.84960938 C-0.23853516 14.68236328 -0.21339844 13.51511719 -0.1875 12.3125 C-0.17396484 11.13365234 -0.16042969 9.95480469 -0.14648438 8.74023438 C-0.11109326 5.82636589 -0.06171809 2.91341055 0 0 Z " fill="#18120D" transform="translate(43,51)"/>
<path d="M0 0 C11.22 0 22.44 0 34 0 C33.67 2.64 33.34 5.28 33 8 C32.814375 9.8871875 32.814375 9.8871875 32.625 11.8125 C31.99628201 15.01896174 31.57604912 16.09596369 29 18 C29.680625 18.7734375 29.680625 18.7734375 30.375 19.5625 C32.38200383 22.57300574 33.12731809 25.50927237 34 29 C31.6875 29 31.6875 29 29 28 C28.2109375 26.22265625 28.2109375 26.22265625 27.5625 24.0625 C26.95180422 21.89175338 26.95180422 21.89175338 26 20 C22.95978632 18.40004618 22.95978632 18.40004618 20 18 C20 17.67 20 17.34 20 17 C21.134375 16.690625 22.26875 16.38125 23.4375 16.0625 C26.78775099 15.37075469 26.78775099 15.37075469 28 14 C28.04092937 11.66702567 28.04241723 9.33294775 28 7 C28.66 6.67 29.32 6.34 30 6 C26.7 5.34 23.4 4.68 20 4 C20.061875 4.9075 20.12375 5.815 20.1875 6.75 C19.98327924 10.28982642 19.35448165 11.44931155 17 14 C16.34 13.67 15.68 13.34 15 13 C15.66 12.34 16.32 11.68 17 11 C17.64767793 8.42938689 17.64767793 8.42938689 18 6 C17.34 6 16.68 6 16 6 C15.01 7.485 15.01 7.485 14 9 C14 7.35 14 5.7 14 4 C9.38 4 4.76 4 0 4 C0 2.68 0 1.36 0 0 Z " fill="#EBCD64" transform="translate(44,32)"/>
<path d="M0 0 C0.33 0 0.66 0 1 0 C1.33 3.63 1.66 7.26 2 11 C2.99 10.67 3.98 10.34 5 10 C5.19335938 11.13179687 5.38671875 12.26359375 5.5859375 13.4296875 C5.84854286 14.91153202 6.11158648 16.39329892 6.375 17.875 C6.50132813 18.62136719 6.62765625 19.36773437 6.7578125 20.13671875 C7.45268694 24.50990532 7.45268694 24.50990532 10 28 C14.48656912 28.61144393 18.70325131 28.49662716 22.9375 26.875 C25.21620032 25.03489256 25.21620032 25.03489256 26.5 21.9375 C28 19 28 19 30.6875 17.625 C31.8321875 17.315625 31.8321875 17.315625 33 17 C33.66 17.99 34.32 18.98 35 20 C31.90968855 24.96657197 29.61351507 28.12882831 24 30 C21.86205475 30.0833804 19.72157991 30.10733747 17.58203125 30.09765625 C16.32841797 30.09443359 15.07480469 30.09121094 13.78320312 30.08789062 C12.47287109 30.07951172 11.16253906 30.07113281 9.8125 30.0625 C8.47721519 30.05748317 7.14192859 30.05292059 5.80664062 30.04882812 C2.53771527 30.03702695 -0.73111991 30.02056297 -4 30 C-3.01 29.34 -2.02 28.68 -1 28 C-0.48853802 25.09386566 -0.48853802 25.09386566 -0.48828125 21.6796875 C-0.45283203 20.42285156 -0.41738281 19.16601562 -0.38085938 17.87109375 C-0.35830078 16.55238281 -0.33574219 15.23367187 -0.3125 13.875 C-0.27933471 12.53512241 -0.24484578 11.19527689 -0.20898438 9.85546875 C-0.12626673 6.5703967 -0.05719307 3.28559968 0 0 Z " fill="#BD883E" transform="translate(36,50)"/>
<path d="M0 0 C4.5558115 -0.31062351 6.56662512 0.00964123 10 3 C10.886875 3.515625 11.77375 4.03125 12.6875 4.5625 C15 6 15 6 16 8 C16.07033769 9.87379605 16.0843022 11.75001102 16.0625 13.625 C16.05347656 14.62789062 16.04445313 15.63078125 16.03515625 16.6640625 C16.02355469 17.43492188 16.01195313 18.20578125 16 19 C15.01 18.67 14.02 18.34 13 18 C12.01 18.33 11.02 18.66 10 19 C9.67 16.69 9.34 14.38 9 12 C9 13.65 9 15.3 9 17 C7.02 17 5.04 17 3 17 C2.95101562 15.94039062 2.90203125 14.88078125 2.8515625 13.7890625 C2.77653291 12.40101503 2.70098515 11.01299549 2.625 9.625 C2.5940625 8.92632812 2.563125 8.22765625 2.53125 7.5078125 C2.40500502 3.29814173 2.40500502 3.29814173 0 0 Z " fill="#D19D44" transform="translate(55,50)"/>
<path d="M0 0 C5.28 0 10.56 0 16 0 C16 0.66 16 1.32 16 2 C14.02 2.99 14.02 2.99 12 4 C11.67 11.59 11.34 19.18 11 27 C10.01 26.01 9.02 25.02 8 24 C7.01 25.32 6.02 26.64 5 28 C4.67 20.08 4.34 12.16 4 4 C2.68 3.34 1.36 2.68 0 2 C0 1.34 0 0.68 0 0 Z " fill="#F2CF65" transform="translate(32,20)"/>
<path d="M0 0 C7.50769231 -0.36923077 7.50769231 -0.36923077 10 1.5 C10.33 1.995 10.66 2.49 11 3 C10.01 3.495 10.01 3.495 9 4 C9.061875 4.928125 9.12375 5.85625 9.1875 6.8125 C9 10 9 10 8 11.8125 C4.85463181 13.68006236 1.63954663 14.15378366 -2 14 C-4.5 12.5625 -4.5 12.5625 -6 11 C-4.7934375 9.948125 -4.7934375 9.948125 -3.5625 8.875 C-0.76566189 5.73708407 -0.28691249 4.11241237 0 0 Z " fill="#211B0E" transform="translate(64,36)"/>
<path d="M0 0 C1.32 0 2.64 0 4 0 C4 6.93 4 13.86 4 21 C5.98 21 7.96 21 10 21 C8.68 21.99 7.36 22.98 6 24 C8.97 23.67 11.94 23.34 15 23 C12 26 12 26 9.58984375 26.36328125 C8.71457031 26.34652344 7.83929688 26.32976562 6.9375 26.3125 C6.05964844 26.30863281 5.18179688 26.30476563 4.27734375 26.30078125 C2 26 2 26 0 24 C-0.22705078 21.56982422 -0.22705078 21.56982422 -0.1953125 18.5546875 C-0.18886719 17.47832031 -0.18242188 16.40195313 -0.17578125 15.29296875 C-0.15902344 14.16503906 -0.14226563 13.03710938 -0.125 11.875 C-0.11597656 10.73933594 -0.10695312 9.60367188 -0.09765625 8.43359375 C-0.07403098 5.62218701 -0.04109013 2.81119702 0 0 Z " fill="#180C03" transform="translate(44,53)"/>
<path d="M0 0 C1.32 0 2.64 0 4 0 C3.690625 1.0725 3.38125 2.145 3.0625 3.25 C2.33187904 5.82866222 1.62517096 8.39512102 1 11 C3.31 12.32 5.62 13.64 8 15 C8 15.66 8 16.32 8 17 C7.2575 16.67 6.515 16.34 5.75 16 C2.86116688 14.77217129 2.86116688 14.77217129 -1 15 C-1.99 15.495 -1.99 15.495 -3 16 C-5.216519 15.75213734 -7.42501152 15.42916475 -9.625 15.0625 C-10.81351563 14.86785156 -12.00203125 14.67320313 -13.2265625 14.47265625 C-14.14179687 14.31667969 -15.05703125 14.16070312 -16 14 C-16 13.01 -16 12.02 -16 11 C-15.32453125 10.91363281 -14.6490625 10.82726563 -13.953125 10.73828125 C-8.08067576 9.90884085 -8.08067576 9.90884085 -3.5 6.375 C-3.005 5.59125 -2.51 4.8075 -2 4 C-1.34 4 -0.68 4 0 4 C0 2.68 0 1.36 0 0 Z " fill="#DCB55E" transform="translate(59,37)"/>
<path d="M0 0 C0.33 0 0.66 0 1 0 C1.33 3.63 1.66 7.26 2 11 C2.99 10.67 3.98 10.34 5 10 C5.04898438 10.95261719 5.09796875 11.90523437 5.1484375 12.88671875 C5.22320312 14.14097656 5.29796875 15.39523438 5.375 16.6875 C5.47941406 18.54955078 5.47941406 18.54955078 5.5859375 20.44921875 C5.96422094 23.69317772 6.61979976 26.06567185 8 29 C5.03 29 2.06 29 -1 29 C-0.67 19.43 -0.34 9.86 0 0 Z " fill="#B8812C" transform="translate(36,50)"/>
<path d="M0 0 C4.29 0 8.58 0 13 0 C12.52039967 6.35470441 12.52039967 6.35470441 10.4375 8.9375 C6.8556202 10.49883222 3.89006898 10.19450345 0 10 C0 6.7 0 3.4 0 0 Z " fill="#1F1C15" transform="translate(45,36)"/>
<path d="M0 0 C1.65 0 3.3 0 5 0 C5 6.6 5 13.2 5 20 C3.35 20 1.7 20 0 20 C0 13.4 0 6.8 0 0 Z " fill="#D3A24D" transform="translate(49,53)"/>
<path d="M0 0 C1.65 0 3.3 0 5 0 C5 3.3 5 6.6 5 10 C6.32 9.67 7.64 9.34 9 9 C8.51917969 9.38800781 8.03835937 9.77601562 7.54296875 10.17578125 C5.54250502 12.54088647 5.51123932 14.12691453 5.3125 17.1875 C5.24675781 18.08855469 5.18101563 18.98960938 5.11328125 19.91796875 C5.07589844 20.60503906 5.03851562 21.29210937 5 22 C3.35 22 1.7 22 0 22 C0 14.74 0 7.48 0 0 Z " fill="#D0A453" transform="translate(25,39)"/>
<path d="M0 0 C10 0 10 0 13 2 C13.2487793 4.15478516 13.2487793 4.15478516 13.07421875 6.7890625 C12.99204102 8.20058594 12.99204102 8.20058594 12.90820312 9.640625 C12.83537109 10.62546875 12.76253906 11.6103125 12.6875 12.625 C12.62626953 13.61757812 12.56503906 14.61015625 12.50195312 15.6328125 C12.34839342 18.08976785 12.18051265 20.54490157 12 23 C9.69 23 7.38 23 5 23 C5 16.07 5 9.14 5 2 C3.68 2 2.36 2 1 2 C1 9.59 1 17.18 1 25 C0.67 25 0.34 25 0 25 C0 16.75 0 8.5 0 0 Z M6 2 C6 8.6 6 15.2 6 22 C7.65 22 9.3 22 11 22 C11 15.4 11 8.8 11 2 C9.35 2 7.7 2 6 2 Z " fill="#3B2405" transform="translate(43,51)"/>
<path d="M0 0 C0.33 0 0.66 0 1 0 C1 2.31 1 4.62 1 7 C8.59 7 16.18 7 24 7 C24 7.33 24 7.66 24 8 C16.08 8 8.16 8 0 8 C0.33 9.65 0.66 11.3 1 13 C4.63 13.33 8.26 13.66 12 14 C12 14.33 12 14.66 12 15 C8.37 15 4.74 15 1 15 C1.33 17.31 1.66 19.62 2 22 C4.31 22 6.62 22 9 22 C9 22.66 9 23.32 9 24 C5.7 24 2.4 24 -1 24 C-1.02682792 20.18745377 -1.04675477 16.37509388 -1.0625 12.5625 C-1.07087891 11.47388672 -1.07925781 10.38527344 -1.08789062 9.26367188 C-1.09111328 8.22919922 -1.09433594 7.19472656 -1.09765625 6.12890625 C-1.10289307 5.17056885 -1.10812988 4.21223145 -1.11352539 3.22485352 C-1 1 -1 1 0 0 Z " fill="#130B01" transform="translate(44,23)"/>
<path d="M0 0 C0.33 0 0.66 0 1 0 C1 4.62 1 9.24 1 14 C2.65 13.67 4.3 13.34 6 13 C6 11.02 6 9.04 6 7 C8 9 8 9 8.3125 12.3125 C7.98867205 16.13366982 7.22414284 17.94180359 5 21 C4.67 20.34 4.34 19.68 4 19 C4.33 18.34 4.66 17.68 5 17 C3.02 16.67 1.04 16.34 -1 16 C-1.02685095 13.52076199 -1.04676547 11.0418116 -1.0625 8.5625 C-1.07506836 7.50192383 -1.07506836 7.50192383 -1.08789062 6.41992188 C-1.09653588 4.61306441 -1.05220011 2.80612397 -1 1 C-0.67 0.67 -0.34 0.34 0 0 Z " fill="#321E04" transform="translate(57,53)"/>
<path d="M0 0 C0.66 1.32 1.32 2.64 2 4 C1.01 4.99 0.02 5.98 -1 7 C-0.54625 7.515625 -0.0925 8.03125 0.375 8.5625 C2.38200383 11.57300574 3.12731809 14.50927237 4 18 C1.6875 18 1.6875 18 -1 17 C-1.7890625 15.22265625 -1.7890625 15.22265625 -2.4375 13.0625 C-3.04819578 10.89175338 -3.04819578 10.89175338 -4 9 C-7.04021368 7.40004618 -7.04021368 7.40004618 -10 7 C-10 6.67 -10 6.34 -10 6 C-8.906875 5.690625 -7.81375 5.38125 -6.6875 5.0625 C-4.44592006 4.41662103 -2.2130649 3.7376883 0 3 C0 2.01 0 1.02 0 0 Z " fill="#CA9F59" transform="translate(74,43)"/>
<path d="M0 0 C8.91 0 17.82 0 27 0 C27 0.33 27 0.66 27 1 C19.08 1.495 19.08 1.495 11 2 C12.32 2.33 13.64 2.66 15 3 C15 4.98 15 6.96 15 9 C14.67 9 14.34 9 14 9 C14 7.35 14 5.7 14 4 C9.38 4 4.76 4 0 4 C0 2.68 0 1.36 0 0 Z " fill="#F6DD85" transform="translate(44,32)"/>
<path d="M0 0 C1.43396751 2.86793501 0.55024337 4.88195423 0 8 C-0.03622333 9.66627298 -0.04899842 11.33405374 0 13 C-1.32 13.33 -2.64 13.66 -4 14 C-4.33 11.69 -4.66 9.38 -5 7 C-4.34 6.67 -3.68 6.34 -3 6 C-6.3 5.34 -9.6 4.68 -13 4 C-13 3.67 -13 3.34 -13 3 C-10.36 2.67 -7.72 2.34 -5 2 C-5 1.67 -5 1.34 -5 1 C-3.35 0.67 -1.7 0.34 0 0 Z " fill="#E5CE7F" transform="translate(77,32)"/>
<path d="M0 0 C5.28 0 10.56 0 16 0 C16 0.66 16 1.32 16 2 C14.02 2.99 14.02 2.99 12 4 C11.67 10.27 11.34 16.54 11 23 C10.67 23 10.34 23 10 23 C10 16.4 10 9.8 10 3 C7.69 3 5.38 3 3 3 C2.01 2.67 1.02 2.34 0 2 C0 1.34 0 0.68 0 0 Z " fill="#D0C37F" transform="translate(32,20)"/>
<path d="M0 0 C0.99 0.33 1.98 0.66 3 1 C3 8.26 3 15.52 3 23 C2.01 23 1.02 23 0 23 C0 15.41 0 7.82 0 0 Z " fill="#16161A" transform="translate(45,53)"/>
<path d="M0 0 C2.67863922 -0.21718696 4.41628148 -0.35440053 6.75 1.0625 C10.07518644 6.21653898 8.90294676 12.28133722 8 18 C7.67 18 7.34 18 7 18 C6.94392578 16.98679687 6.94392578 16.98679687 6.88671875 15.953125 C6.82097656 15.06109375 6.75523438 14.1690625 6.6875 13.25 C6.60048828 11.92742188 6.60048828 11.92742188 6.51171875 10.578125 C5.93309954 7.66294426 4.84740512 6.27830122 3 4 C3 3.34 3 2.68 3 2 C2.01 1.67 1.02 1.34 0 1 C0 0.67 0 0.34 0 0 Z " fill="#3D260C" transform="translate(64,50)"/>
<path d="M0 0 C0.99 0 1.98 0 3 0 C4.32286246 4.96073422 4.08893197 9.91111512 4 15 C3.67 15 3.34 15 3 15 C3 13.35 3 11.7 3 10 C2.01 10.33 1.02 10.66 0 11 C0 7.37 0 3.74 0 0 Z " fill="#D7A23D" transform="translate(38,50)"/>
<path d="M0 0 C1.32 0.33 2.64 0.66 4 1 C4.33 1.99 4.66 2.98 5 4 C4.34 4 3.68 4 3 4 C3 5.98 3 7.96 3 10 C2.01 10 1.02 10 0 10 C0 6.7 0 3.4 0 0 Z " fill="#CA9234" transform="translate(59,56)"/>
<path d="M0 0 C1.65 0 3.3 0 5 0 C5 2.97 5 5.94 5 9 C4.34 8.34 3.68 7.68 3 7 C2.67 8.65 2.34 10.3 2 12 C1.67 12 1.34 12 1 12 C0.67 8.04 0.34 4.08 0 0 Z " fill="#E5C574" transform="translate(25,39)"/>
<path d="M0 0 C2.31 0 4.62 0 7 0 C6.67 0.66 6.34 1.32 6 2 C5.01 2.33 4.02 2.66 3 3 C2.67 5.97 2.34 8.94 2 12 C1.67 12 1.34 12 1 12 C0.67 8.04 0.34 4.08 0 0 Z " fill="#FAE67E" transform="translate(36,22)"/>
<path d="M0 0 C1.32 0 2.64 0 4 0 C3.34 2.31 2.68 4.62 2 7 C1.01 7 0.02 7 -1 7 C-0.67 4.69 -0.34 2.38 0 0 Z " fill="#E6C154" transform="translate(59,37)"/>
<path d="M0 0 C0.66 1.32 1.32 2.64 2 4 C-2.10457614 6.98514628 -4.97745369 7.2954439 -10 7 C-10 6.67 -10 6.34 -10 6 C-8.906875 5.690625 -7.81375 5.38125 -6.6875 5.0625 C-4.44592006 4.41662103 -2.2130649 3.7376883 0 3 C0 2.01 0 1.02 0 0 Z " fill="#D1B374" transform="translate(74,43)"/>
<path d="M0 0 C-1.76956458 2.14210449 -2.87575652 2.96060573 -5.5625 3.8125 C-6.366875 3.874375 -7.17125 3.93625 -8 4 C-8.66 3.34 -9.32 2.68 -10 2 C-6.3558226 -0.4294516 -4.28758728 -0.16179575 0 0 Z " fill="#AD7E3B" transform="translate(66,76)"/>
<path d="M0 0 C0.66 0 1.32 0 2 0 C2 3.3 2 6.6 2 10 C1.67 10 1.34 10 1 10 C1 8.35 1 6.7 1 5 C0.01 5.33 -0.98 5.66 -2 6 C-1.34 4.02 -0.68 2.04 0 0 Z " fill="#CB9837" transform="translate(40,55)"/>
<path d="M0 0 C1.65 0 3.3 0 5 0 C5.33 1.32 5.66 2.64 6 4 C5.01 4 4.02 4 3 4 C3 3.34 3 2.68 3 2 C2.01 1.67 1.02 1.34 0 1 C0 0.67 0 0.34 0 0 Z " fill="#22160A" transform="translate(64,50)"/>
</svg>
